# xmcd CD database file
#
# Track frame offsets:
#	150
#	12131
#	16265
#	20562
#	25139
#	30419
#	38556
#	47275
#	58803
#	70508
#	82342
#	94715
#	107217
#	121226
#	135374
#	151591
#	168037
#	185770
#	204093
#	223039
#	242051
#	262594
#	284332
#
# Disc length: 4092 seconds
#
# Revision: 0
# Processed by: cddbd v1.5.1PL2 Copyright (c) Steve Scherf et al.
# Submitted via: CDex 1.70beta2
#
DISCID=1b0ffa17
DTITLE=Townes Van Zandt - Last Rights
DYEAR=1900
DGENRE=Country
TTITLE0=Blaze's Blues
TTITLE1=The Homeless
TTITLE2=Marie
TTITLE3=Life
TTITLE4=The Hole
TTITLE5=Cowboy Junkies Lament
TTITLE6=Pancho and Lefty Story
TTITLE7=Pancho and Lefty
TTITLE8=Lightnin Hopkins story
TTITLE9=Brand New Companion
TTITLE10=Tecumseh Valley
TTITLE11=Wedding Songs and Hits
TTITLE12=If I Needed You
TTITLE13=I'll Be Here In The Morning
TTITLE14=Waitin Round to Die
TTITLE15=Sounds, Roots and Sprouts
TTITLE16=One Man House Band at the Jester Lounge
TTITLE17=Early Influences
TTITLE18=Under the Influence
TTITLE19=Pancho Lefty and Townes
TTITLE20=Sombody Had to Write It
TTITLE21=Exiles Exits and Endings
TTITLE22=Ghost Harp and Concertina
EXTD=
EXTT0=
EXTT1=
EXTT2=
EXTT3=
EXTT4=
EXTT5=
EXTT6=
EXTT7=
EXTT8=
EXTT9=
EXTT10=
EXTT11=
EXTT12=
EXTT13=
EXTT14=
EXTT15=
EXTT16=
EXTT17=
EXTT18=
EXTT19=
EXTT20=
EXTT21=
EXTT22=
PLAYORDER=
